<?xml version="1.0" encoding="UTF-8" standalone="no"?>
<!-- Created with Inkscape (http://www.inkscape.org/) -->

<svg
   version="1.1"
   id="svg2"
   width="2666.6667"
   height="2666.6667"
   viewBox="0 0 2666.6667 2666.6667"
   sodipodi:docname="lesstimate_logo_inverted.svg"
   inkscape:version="1.2 (dc2aedaf03, 2022-05-15)"
   xmlns:inkscape="http://www.inkscape.org/namespaces/inkscape"
   xmlns:sodipodi="http://sodipodi.sourceforge.net/DTD/sodipodi-0.dtd"
   xmlns="http://www.w3.org/2000/svg"
   xmlns:svg="http://www.w3.org/2000/svg">
  <defs
     id="defs6" />
  <sodipodi:namedview
     id="namedview4"
     pagecolor="#505050"
     bordercolor="#eeeeee"
     borderopacity="1"
     inkscape:showpageshadow="0"
     inkscape:pageopacity="0"
     inkscape:pagecheckerboard="0"
     inkscape:deskcolor="#505050"
     showgrid="false"
     inkscape:zoom="0.31087499"
     inkscape:cx="1331.725"
     inkscape:cy="1334.9417"
     inkscape:window-width="2560"
     inkscape:window-height="1009"
     inkscape:window-x="-8"
     inkscape:window-y="-8"
     inkscape:window-maximized="1"
     inkscape:current-layer="g8" />
  <g
     id="g8"
     inkscape:groupmode="layer"
     inkscape:label="ink_ext_XXXXXX"
     transform="matrix(1.3333333,0,0,-1.3333333,0,2666.6667)">
    <g
       id="g10"
       transform="scale(0.1)"
       style="fill:#e6e6e6">
      <path
         d="M 6327.77,7869.76 10000,5749.39 13672.2,7869.76 V 12130.8 L 10000.3,14250.6 6327.77,12130.8 Z M 10000,5576.2 6177.77,7783.16 v 4434.34 l 37.51,21.6 3785.02,2184.7 37.5,-21.6 3784.4,-2184.8 V 7783.16"
         style="fill:#e6e6e6;fill-opacity:1;fill-rule:nonzero;stroke:none"
         id="path12" />
      <path
         d="m 9837.13,6794.58 c 0,-108.27 -87.77,-196.04 -196.04,-196.04 -108.27,0 -196.04,87.77 -196.04,196.04 0,108.27 87.77,196.04 196.04,196.04 108.27,0 196.04,-87.77 196.04,-196.04"
         style="fill:#e6e6e6;fill-opacity:1;fill-rule:nonzero;stroke:none"
         id="path14" />
      <path
         d="m 8286.64,8361.11 c 0,-108.27 -87.77,-196.04 -196.04,-196.04 -108.28,0 -196.05,87.77 -196.05,196.04 0,108.27 87.77,196.04 196.05,196.04 108.27,0 196.04,-87.77 196.04,-196.04"
         style="fill:#e6e6e6;fill-opacity:1;fill-rule:nonzero;stroke:none"
         id="path16" />
      <path
         d="m 11783.3,7664.06 c 0,-108.27 -87.8,-196.04 -196.1,-196.04 -108.2,0 -196,87.77 -196,196.04 0,108.27 87.8,196.04 196,196.04 108.3,0 196.1,-87.77 196.1,-196.04"
         style="fill:#e6e6e6;fill-opacity:1;fill-rule:nonzero;stroke:none"
         id="path18" />
      <path
         d="m 9794.36,8874.39 c 0,-108.27 -87.77,-196.05 -196.04,-196.05 -108.27,0 -196.05,87.78 -196.05,196.05 0,108.25 87.78,196.04 196.05,196.04 108.27,0 196.04,-87.79 196.04,-196.04"
         style="fill:#e6e6e6;fill-opacity:1;fill-rule:nonzero;stroke:none"
         id="path20" />
      <path
         d="m 8436.34,10633.1 c 0,-108.3 -87.77,-196 -196.04,-196 -108.27,0 -196.04,87.7 -196.04,196 0,108.3 87.77,196 196.04,196 108.27,0 196.04,-87.7 196.04,-196"
         style="fill:#e6e6e6;fill-opacity:1;fill-rule:nonzero;stroke:none"
         id="path22" />
      <path
         d="m 10371.8,10437.1 c 0,-108.3 -87.8,-196.1 -196.1,-196.1 -108.2,0 -196,87.8 -196,196.1 0,108.2 87.8,196 196,196 108.3,0 196.1,-87.8 196.1,-196"
         style="fill:#e6e6e6;fill-opacity:1;fill-rule:nonzero;stroke:none"
         id="path24" />
      <path
         d="m 8372.18,12532.9 c 0,-108.3 -87.77,-196 -196.04,-196 -108.27,0 -196.04,87.7 -196.04,196 0,108.3 87.77,196 196.04,196 108.27,0 196.04,-87.7 196.04,-196"
         style="fill:#e6e6e6;fill-opacity:1;fill-rule:nonzero;stroke:none"
         id="path26" />
      <path
         d="m 13711,7760.78 c -1096.8,604.39 -2162.8,1357.82 -3168.3,2239.42 -983.26,862 -1937.18,1871.7 -2835.26,3000.8 l 117.39,93.3 C 9627.75,10827.6 11632.5,9077.34 13783.4,7892.15"
         style="fill:#e6e6e6;fill-opacity:1;fill-rule:nonzero;stroke:none"
         id="path28" />
      <path
         d="M 13722.7,7755.58 C 12491.1,8180.96 11157.3,8795.31 9865.49,9532.19 8483.1,10320.7 7216.59,11214.9 6202.88,12118.1 l 99.79,112 c 1951.74,-1739 4883.53,-3439.71 7469.03,-4332.74"
         style="fill:#e6e6e6;fill-opacity:1;fill-rule:nonzero;stroke:none"
         id="path30" />
      <path
         d="m 13742.5,7751.61 c -1222.2,76.98 -2483.1,368.6 -3747.86,866.75 C 8728.43,9117.1 7454.75,9824.34 6208.98,10720.5 l 87.59,121.7 C 8759.86,9070.33 11337.9,8053.38 13751.9,7901.32"
         style="fill:#e6e6e6;fill-opacity:1;fill-rule:nonzero;stroke:none"
         id="path32" />
      <path
         d="m 11702.8,7589.43 c -648,0 -1262.8,54.09 -1853.9,162.3 -1275.58,233.54 -2465.34,720.74 -3637.27,1489.47 l 82.28,125.43 c 2215.47,-1453.25 4510.69,-1905.36 7442.19,-1466 l 22.2,-148.34 C 13034,7643.73 12351.7,7589.43 11702.8,7589.43"
         style="fill:#e6e6e6;fill-opacity:1;fill-rule:nonzero;stroke:none"
         id="path34" />
      <path
         d="m 9843.52,6721.05 c -504.88,0 -1002.5,61.27 -1510.91,185.47 -689.47,168.43 -1381.66,447.87 -2116.16,854.32 l 72.64,131.25 c 3061.64,-1694.25 5260.41,-965.43 7427.51,2.86 l 61.2,-136.97 C 12690.1,7272 11508,6811.48 10234,6733.13 c -130.8,-8.06 -260.89,-12.08 -390.48,-12.08"
         style="fill:#e6e6e6;fill-opacity:1;fill-rule:nonzero;stroke:none"
         id="path36" />
    </g>
  </g>
</svg>
